<svg xmlns="http://www.w3.org/2000/svg" viewBox="0 0 500 500"><defs><style>.a{fill:#fff;}</style></defs><title>Docula Logo Vertical WHITE</title><path class="a" d="M250,303.48c-17.36-39.74-47-59.17-90.59-59.38C159,206.13,128,177.82,80,171.58c15.49-15.31,59.38-30.79,108-30.79A226.51,226.51,0,0,1,211.17,142l.42,0,.25-.34a159,159,0,0,1,18.93-21.4c4.18,4.68,11.56,9.21,19.23,9.21s15.05-4.53,19.23-9.21a159.33,159.33,0,0,1,18.94,21.4l.24.34.42,0A226.51,226.51,0,0,1,312,140.79a229.35,229.35,0,0,1,67.92,10.07c17.92,5.62,32.41,13.12,40.1,20.72-48,6.24-79,34.55-79.41,72.52C297,244.31,267.36,263.74,250,303.48Zm10.91-163.27a4.07,4.07,0,1,0,4.06,4.06A4.07,4.07,0,0,0,260.91,140.21Zm-21.82,0a4.07,4.07,0,1,0,4.07,4.06A4.06,4.06,0,0,0,239.09,140.21Z"/><path class="a" d="M187.59,379.73a25.42,25.42,0,0,1-9-1.55,21.29,21.29,0,0,1-7.12-4.37,20.39,20.39,0,0,1-4.71-6.83,22.39,22.39,0,0,1-1.71-8.88,21.78,21.78,0,0,1,1.71-8.79,19.62,19.62,0,0,1,4.7-6.64,21.24,21.24,0,0,1,7.12-4.23,27.63,27.63,0,0,1,18,0,21.48,21.48,0,0,1,7.15,4.23,19.43,19.43,0,0,1,4.73,6.64,21.78,21.78,0,0,1,1.71,8.79,22.36,22.36,0,0,1-1.71,8.88,20,20,0,0,1-4.74,6.82,21.39,21.39,0,0,1-7.15,4.38A25.42,25.42,0,0,1,187.59,379.73Zm0-31.33a9.16,9.16,0,0,0-3.59.71,8.5,8.5,0,0,0-2.87,2,8.78,8.78,0,0,0-1.86,3.08,11.16,11.16,0,0,0-.67,3.94,11.87,11.87,0,0,0,.66,4,9.91,9.91,0,0,0,1.86,3.18,8.21,8.21,0,0,0,2.87,2.1,8.85,8.85,0,0,0,3.6.74,8.72,8.72,0,0,0,3.58-.74,8.52,8.52,0,0,0,2.86-2.09,9.78,9.78,0,0,0,1.89-3.19,11.87,11.87,0,0,0,.66-4,11.39,11.39,0,0,0-.66-3.94,8.73,8.73,0,0,0-1.91-3.09,8.8,8.8,0,0,0-6.42-2.67Z"/><path class="a" d="M238.57,379.73a24.09,24.09,0,0,1-8.65-1.55,21.15,21.15,0,0,1-7-4.37,20.64,20.64,0,0,1-4.68-6.75,21.54,21.54,0,0,1-1.72-8.72,21.92,21.92,0,0,1,1.72-8.82,20.23,20.23,0,0,1,4.68-6.74,20.6,20.6,0,0,1,7-4.31,24.52,24.52,0,0,1,8.65-1.53,26.11,26.11,0,0,1,8.91,1.53A21.24,21.24,0,0,1,254,342.1l-7.65,9.22a8.47,8.47,0,0,0-2.65-1.88,10.33,10.33,0,0,0-4.26-.86,9.66,9.66,0,0,0-3.58.67,8.46,8.46,0,0,0-2.93,2,9.16,9.16,0,0,0-2,3.11,11.14,11.14,0,0,0-.69,4,10.25,10.25,0,0,0,.73,4,9.7,9.7,0,0,0,2,3,8.34,8.34,0,0,0,2.94,2,9.22,9.22,0,0,0,3.51.68,9,9,0,0,0,4.53-1.1,10.39,10.39,0,0,0,2.39-1.87l7.65,9.17a20.62,20.62,0,0,1-6.26,3.92A24.28,24.28,0,0,1,238.57,379.73Z"/><path class="a" d="M278.9,379.73a23.6,23.6,0,0,1-8.29-1.32,16.48,16.48,0,0,1-5.81-3.56,14.34,14.34,0,0,1-3.43-5.32,19.51,19.51,0,0,1-1.14-6.7v-24.7h12.64v23.16a7.75,7.75,0,0,0,1.62,5.17,6.57,6.57,0,0,0,9.3,0,7.7,7.7,0,0,0,1.62-5.17V338.13H298v24.7a18.11,18.11,0,0,1-1.22,6.68,14.83,14.83,0,0,1-3.58,5.33,17,17,0,0,1-5.93,3.57A24.41,24.41,0,0,1,278.9,379.73Z"/><polygon class="a" points="308.13 378.55 308.13 338.13 320.89 338.13 320.89 367.86 334.78 367.86 334.78 378.55 308.13 378.55"/><path class="a" d="M371.16,378.55,369,372.4H354.66l-2.07,6.15H339.25l15.93-40.42h14l15.76,40.42Zm-13.61-15.48h8.77L362,349.72Z"/><path class="a" d="M116.63,378.57a13.2,13.2,0,0,0,3.94-9.61,13,13,0,0,0-5.17-10.6,13,13,0,0,0,5.17-10.6,13.22,13.22,0,0,0-3.94-9.61H134.4a44.15,44.15,0,0,1,9.34,1,21.35,21.35,0,0,1,7.72,3.26,16.7,16.7,0,0,1,5.3,6.09,20.88,20.88,0,0,1,2,9.66,20.61,20.61,0,0,1-1.91,9.2,17.94,17.94,0,0,1-5.09,6.35,21.69,21.69,0,0,1-7.38,3.69,32,32,0,0,1-8.79,1.21Zm15-10.69h3.31c3.47,0,6.18-.77,8.08-2.31s2.92-4.12,2.92-7.59A8.6,8.6,0,0,0,143,351.1a11.27,11.27,0,0,0-7.55-2.44h-3.85Z"/></svg>