<svg xmlns="http://www.w3.org/2000/svg" viewBox="0 0 500 500"><defs><style>.a{fill:#fff;}</style></defs><title>Docula Logo Horizontal WHITE</title><path class="a" d="M287.83,271a23.48,23.48,0,0,1-8.27-1.43,19.29,19.29,0,0,1-6.56-4,18.67,18.67,0,0,1-4.34-6.28,20.66,20.66,0,0,1-1.58-8.19,20,20,0,0,1,1.58-8.1,18,18,0,0,1,4.33-6.12,19.32,19.32,0,0,1,6.56-3.9,25.53,25.53,0,0,1,16.56,0,19.72,19.72,0,0,1,6.59,3.9,17.8,17.8,0,0,1,4.36,6.12,20,20,0,0,1,1.58,8.1,20.69,20.69,0,0,1-1.58,8.19,18.57,18.57,0,0,1-4.37,6.28,19.42,19.42,0,0,1-6.59,4A23.44,23.44,0,0,1,287.83,271Zm0-29a8.47,8.47,0,0,0-3.34.66,8,8,0,0,0-2.69,1.84,8.37,8.37,0,0,0-1.74,2.88,10.59,10.59,0,0,0-.62,3.67,11,11,0,0,0,.62,3.75,8.9,8.9,0,0,0,1.73,3,7.71,7.71,0,0,0,2.68,2,8.25,8.25,0,0,0,3.36.69,7.93,7.93,0,0,0,6-2.65,8.88,8.88,0,0,0,1.76-3,11,11,0,0,0,.62-3.75,10.59,10.59,0,0,0-.62-3.67,8.15,8.15,0,0,0-1.78-2.89,8.24,8.24,0,0,0-6-2.49Z"/><path class="a" d="M335,271a22.3,22.3,0,0,1-8-1.42,19.56,19.56,0,0,1-6.46-4,19.11,19.11,0,0,1-4.31-6.22,19.85,19.85,0,0,1-1.58-8,20.26,20.26,0,0,1,1.58-8.13,18.8,18.8,0,0,1,4.31-6.21,19.31,19.31,0,0,1,6.45-4,22.61,22.61,0,0,1,8-1.41,24.16,24.16,0,0,1,8.23,1.41,19.33,19.33,0,0,1,5.89,3.3l-7,8.4a8,8,0,0,0-2.42-1.69,9.52,9.52,0,0,0-4-.81,9,9,0,0,0-3.34.63,8,8,0,0,0-2.74,1.84,8.54,8.54,0,0,0-1.83,2.9,10.41,10.41,0,0,0-.65,3.74,9.49,9.49,0,0,0,.69,3.7,8.87,8.87,0,0,0,1.84,2.83,8.11,8.11,0,0,0,2.75,1.84,8.78,8.78,0,0,0,3.28.62,8.35,8.35,0,0,0,4.22-1,10.23,10.23,0,0,0,2.18-1.68l7,8.36a18.93,18.93,0,0,1-5.72,3.56A22.22,22.22,0,0,1,335,271Z"/><path class="a" d="M372.32,271a22,22,0,0,1-7.65-1.21,15.31,15.31,0,0,1-5.35-3.28,13,13,0,0,1-3.15-4.89,17.77,17.77,0,0,1-1.05-6.17V232.7h11.53v21.35a7.24,7.24,0,0,0,1.52,4.83,6.13,6.13,0,0,0,8.72,0,7.17,7.17,0,0,0,1.52-4.83V232.7H389.9v22.78a16.6,16.6,0,0,1-1.13,6.15,13.58,13.58,0,0,1-3.29,4.9,15.68,15.68,0,0,1-5.46,3.29A22.51,22.51,0,0,1,372.32,271Z"/><polygon class="a" points="399.43 269.94 399.43 232.7 411.08 232.7 411.08 260.21 423.93 260.21 423.93 269.94 399.43 269.94"/><path class="a" d="M457.72,269.94l-2-5.69H442.34l-1.91,5.69H428.26l14.68-37.24h12.83l14.51,37.24ZM445,255.78h8.32l-4.12-12.68Z"/><path class="a" d="M222.37,270a12.32,12.32,0,0,0,3.53-8.81,12.07,12.07,0,0,0-4.73-9.81,12.07,12.07,0,0,0,4.73-9.81,12.32,12.32,0,0,0-3.53-8.81h16.26a40.76,40.76,0,0,1,8.62.89,19.49,19.49,0,0,1,7.11,3,15.39,15.39,0,0,1,4.88,5.61,22,22,0,0,1,.08,17.38,16.52,16.52,0,0,1-4.69,5.84,20.21,20.21,0,0,1-6.8,3.4,29.42,29.42,0,0,1-8.11,1.12Zm13.6-9.73h3.15c3.22,0,5.75-.73,7.52-2.16s2.73-3.85,2.73-7.08a8,8,0,0,0-2.72-6.42,10.53,10.53,0,0,0-7-2.28H236Z"/><path class="a" d="M113.76,295C105,275.65,90.34,266.12,68.9,265.91c-.38-18.77-15.62-32.78-39.18-36.1,8.14-7.41,29.48-14.73,53.1-14.73a112.47,112.47,0,0,1,11.52.59l.43,0,.25-.35A77.67,77.67,0,0,1,104.15,205a14.08,14.08,0,0,0,9.61,4.44,14.09,14.09,0,0,0,9.62-4.44,79.13,79.13,0,0,1,9.13,10.36l.25.35.43,0a112.32,112.32,0,0,1,11.52-.59c23.62,0,45,7.32,53.1,14.73-23.56,3.32-38.8,17.33-39.19,36.1C137.19,266.12,122.49,275.65,113.76,295Zm5.45-81a2.41,2.41,0,1,0,2.41,2.41A2.41,2.41,0,0,0,119.21,214Zm-10.89,0a2.41,2.41,0,1,0,2.41,2.41A2.41,2.41,0,0,0,108.32,214Z"/></svg>