<svg xmlns="http://www.w3.org/2000/svg" viewBox="0 0 500 500"><defs><style>.a{fill:#fff;}</style></defs><title>Docula Symbol WHITE</title><path class="a" d="M250,344.3c-17.87-40.91-48.4-60.92-93.26-61.13-.39-39.09-32.33-68.23-81.74-74.65,16-15.76,61.13-31.69,111.2-31.69A231.41,231.41,0,0,1,210,178l.43,0,.25-.35a163.46,163.46,0,0,1,19.49-22c4.3,4.81,11.91,9.48,19.8,9.48s15.5-4.67,19.79-9.48a162.9,162.9,0,0,1,19.5,22l.25.35.43,0a231.41,231.41,0,0,1,23.83-1.21,235.92,235.92,0,0,1,69.92,10.36c18.45,5.78,33.36,13.5,41.28,21.33-49.41,6.42-81.35,35.56-81.74,74.65C298.39,283.38,267.87,303.39,250,344.3Zm11.23-168.08a4.19,4.19,0,1,0,4.18,4.19A4.2,4.2,0,0,0,261.23,176.22Zm-22.46,0a4.19,4.19,0,1,0,4.19,4.19A4.19,4.19,0,0,0,238.77,176.22Z"/></svg>