<svg xmlns="http://www.w3.org/2000/svg" xmlns:xlink="http://www.w3.org/1999/xlink" viewBox="0 0 500 500"><defs><style>.a{fill:#322d3c;}.b{fill:url(#a);}.c{fill:url(#b);}.d{fill:url(#c);}.e{fill:url(#d);}.f{fill:url(#e);}.g{fill:url(#f);}.h{fill:url(#g);}.i{fill:#fff;}</style><linearGradient id="a" x1="250" y1="172.96" x2="250" y2="172.96" gradientUnits="userSpaceOnUse"><stop offset="0" stop-color="#322d3c"/><stop offset="1" stop-color="#7d7887"/></linearGradient><linearGradient id="b" x1="251.4" y1="157.08" x2="418.59" y2="157.08" xlink:href="#a"/><linearGradient id="c" x1="80" y1="157.08" x2="248.81" y2="157.08" xlink:href="#a"/><linearGradient id="d" x1="248.48" y1="172.7" x2="144.11" y2="202.12" xlink:href="#a"/><linearGradient id="e" x1="212.87" y1="257.94" x2="252.8" y2="174.12" xlink:href="#a"/><linearGradient id="f" x1="357.26" y1="203.07" x2="249.39" y2="175.28" xlink:href="#a"/><linearGradient id="g" x1="250.46" y1="176.06" x2="287.35" y2="257.54" xlink:href="#a"/></defs><title>Docula Logo Vertical Negative RGB</title><path class="a" d="M420,173h0c-16.76-18-72.78-36.65-131.59-30.58A160.15,160.15,0,0,0,269,120.55c-3.78,4.52-11.15,9.45-19,9.45s-15.23-4.93-19-9.45a160.15,160.15,0,0,0-19.4,21.83h0C152.78,136.31,96.76,154.94,80,173h0c48.86,5.86,79.5,34.09,79.5,72.06,52.37,0,77,28,90.5,59.94h0C263.54,273,288.13,245,340.5,245c0-38,30.64-66.2,79.5-72.06ZM239.19,148.68a3.32,3.32,0,1,1,3.32-3.32A3.31,3.31,0,0,1,239.19,148.68Zm21.62,0a3.32,3.32,0,1,1,3.32-3.32A3.32,3.32,0,0,1,260.81,148.68Z"/><polygon class="b" points="250 172.96 250 172.96 250 172.96 250 172.96"/><path class="c" d="M420,173c-16.76-18-72.78-36.65-131.59-30.58L250,173Z"/><path class="d" d="M80,173H250l-38.41-30.58C152.78,136.31,96.76,154.94,80,173Z"/><path class="a" d="M288.41,142.38h0A160.15,160.15,0,0,0,269,120.55c-3.78,4.52-11.15,9.45-19,9.45s-15.23-4.93-19-9.45a160.15,160.15,0,0,0-19.4,21.83h0L250,173h0Z"/><path class="e" d="M159.5,245c0-38-30.64-66.2-79.5-72.06H250Z"/><path class="f" d="M250,305C236.46,273,211.87,245,159.5,245L250,173Z"/><path class="g" d="M340.5,245c0-38,30.64-66.2,79.5-72.06H250Z"/><path class="h" d="M250,305C263.54,273,288.13,245,340.5,245L250,173Z"/><circle class="i" cx="239.19" cy="145.36" r="3.32"/><circle class="i" cx="260.81" cy="145.36" r="3.32"/><path class="i" d="M165.12,357.31a22.27,22.27,0,0,1,1.75-9,20,20,0,0,1,4.84-6.82,21.48,21.48,0,0,1,7.29-4.34,28.24,28.24,0,0,1,18.28,0,21.81,21.81,0,0,1,7.32,4.34,19.91,19.91,0,0,1,4.87,6.82,22.27,22.27,0,0,1,1.75,9,22.86,22.86,0,0,1-1.75,9.08,20.73,20.73,0,0,1-4.87,7,22,22,0,0,1-7.32,4.48,27.23,27.23,0,0,1-18.28,0,21.63,21.63,0,0,1-7.29-4.48,20.8,20.8,0,0,1-4.84-7A22.86,22.86,0,0,1,165.12,357.31Zm14.82,0a11,11,0,0,0,.61,3.75,9.05,9.05,0,0,0,1.7,2.92,7.39,7.39,0,0,0,2.61,1.91,8,8,0,0,0,3.28.67,7.78,7.78,0,0,0,3.25-.67A7.66,7.66,0,0,0,194,364a8.77,8.77,0,0,0,1.73-2.92,11,11,0,0,0,.61-3.75,10.59,10.59,0,0,0-.61-3.67,7.89,7.89,0,0,0-1.73-2.81,8.12,8.12,0,0,0-5.86-2.43,8.31,8.31,0,0,0-3.28.65,7.71,7.71,0,0,0-2.61,1.78,8.13,8.13,0,0,0-1.7,2.81A10.59,10.59,0,0,0,179.94,357.31Z"/><path class="i" d="M216.11,357.54a22.4,22.4,0,0,1,1.76-9,20.75,20.75,0,0,1,4.8-6.92,21.39,21.39,0,0,1,7.18-4.42,24.94,24.94,0,0,1,8.82-1.55,26.57,26.57,0,0,1,9.08,1.55,21,21,0,0,1,7.14,4.19l-8.55,10.31a7.62,7.62,0,0,0-2.93-2.31,9.4,9.4,0,0,0-3.92-.79,8.71,8.71,0,0,0-3.29.61,7.76,7.76,0,0,0-2.66,1.79,8.33,8.33,0,0,0-1.79,2.84,10.23,10.23,0,0,0-.64,3.72,9.37,9.37,0,0,0,.67,3.66A8.76,8.76,0,0,0,233.6,364a7.62,7.62,0,0,0,2.66,1.79,8.56,8.56,0,0,0,3.23.62,8.1,8.1,0,0,0,4.13-1,8.63,8.63,0,0,0,2.72-2.34l8.55,10.25a20.64,20.64,0,0,1-6.91,4.48,26.1,26.1,0,0,1-18.13.09,21.54,21.54,0,0,1-7.18-4.48,21.22,21.22,0,0,1-4.8-6.91A22.11,22.11,0,0,1,216.11,357.54Z"/><path class="i" d="M278.65,379.45a24.16,24.16,0,0,1-8.47-1.35,16.87,16.87,0,0,1-6-3.69,14.66,14.66,0,0,1-3.57-5.53,19.67,19.67,0,0,1-1.18-6.89V336.8h13.95v23.67a6.93,6.93,0,0,0,1.43,4.66,5.81,5.81,0,0,0,8.15,0,7,7,0,0,0,1.43-4.66V336.8h13.89V362a18.62,18.62,0,0,1-1.26,6.89,15.26,15.26,0,0,1-3.72,5.53,17.55,17.55,0,0,1-6.13,3.69A24.57,24.57,0,0,1,278.65,379.45Z"/><path class="i" d="M306.91,336.8H321v29.47h13.77v12H306.91Z"/><path class="i" d="M353.77,336.8H368.6l16.17,41.48H369.59l-2.17-6.09H354.24l-2.05,6.09H337.43ZM361,351.27l-3.4,10.25h6.74Z"/><path class="i" d="M158.21,347.43a17.13,17.13,0,0,0-5.48-6.3,21.89,21.89,0,0,0-7.91-3.34,44.72,44.72,0,0,0-9.4-1H115.73A12,12,0,0,1,121,347.06a11.77,11.77,0,0,1-5.77,10.5A11.8,11.8,0,0,1,121,368.07a12,12,0,0,1-5.27,10.23h20.86a32.06,32.06,0,0,0,8.91-1.23,22.06,22.06,0,0,0,7.55-3.78,18.41,18.41,0,0,0,5.25-6.53,24.3,24.3,0,0,0-.09-19.33Zm-14.7,16.73q-2.64,2.13-7.56,2.13h-2.58V348.66h3.1a10.49,10.49,0,0,1,7,2.25,7.82,7.82,0,0,1,2.63,6.27C146.14,360.42,145.26,362.74,143.51,364.16Z"/></svg>