<svg xmlns="http://www.w3.org/2000/svg" xmlns:xlink="http://www.w3.org/1999/xlink" viewBox="0 0 500 500"><defs><style>.a{fill:#322d3c;}.b{fill:url(#a);}.c{fill:url(#b);}.d{fill:url(#c);}.e{fill:url(#d);}.f{fill:url(#e);}.g{fill:url(#f);}.h{fill:url(#g);}.i{fill:#fff;}</style><linearGradient id="a" x1="118.27" y1="230.58" x2="118.27" y2="230.58" gradientUnits="userSpaceOnUse"><stop offset="0" stop-color="#322d3c"/><stop offset="1" stop-color="#7d7887"/></linearGradient><linearGradient id="b" x1="118.96" y1="222.83" x2="200.55" y2="222.83" xlink:href="#a"/><linearGradient id="c" x1="35.31" y1="222.83" x2="117.69" y2="222.83" xlink:href="#a"/><linearGradient id="d" x1="117.53" y1="230.45" x2="66.6" y2="244.81" xlink:href="#a"/><linearGradient id="e" x1="100.15" y1="272.05" x2="119.64" y2="231.14" xlink:href="#a"/><linearGradient id="f" x1="170.62" y1="245.27" x2="117.98" y2="231.71" xlink:href="#a"/><linearGradient id="g" x1="118.5" y1="232.09" x2="136.5" y2="271.86" xlink:href="#a"/></defs><title>Rivus Logo Horizontal Positive RGB</title><path class="a" d="M201.24,230.58h0c-8.18-8.8-35.52-17.89-64.22-14.93A78.32,78.32,0,0,0,127.55,205a13,13,0,0,1-9.28,4.61A13,13,0,0,1,109,205a77.52,77.52,0,0,0-9.46,10.65h0c-28.71-3-56,6.13-64.22,14.93h0c23.84,2.86,38.8,16.64,38.8,35.16,25.56,0,37.56,13.66,44.16,29.26h0c6.61-15.6,18.61-29.26,44.17-29.26,0-18.52,14.95-32.3,38.8-35.16ZM113,218.73a1.62,1.62,0,1,1,1.62-1.62A1.62,1.62,0,0,1,113,218.73Zm10.55,0a1.62,1.62,0,1,1,1.62-1.62A1.61,1.61,0,0,1,123.55,218.73Z"/><polygon class="b" points="118.27 230.58 118.27 230.58 118.27 230.58 118.27 230.58"/><path class="c" d="M201.24,230.58c-8.18-8.8-35.52-17.89-64.22-14.93l-18.75,14.93Z"/><path class="d" d="M35.31,230.58h83L99.53,215.65C70.82,212.69,43.48,221.78,35.31,230.58Z"/><path class="a" d="M137,215.65h0A78.32,78.32,0,0,0,127.55,205a13,13,0,0,1-9.28,4.61A13,13,0,0,1,109,205a77.52,77.52,0,0,0-9.46,10.65h0l18.74,14.93h0Z"/><path class="e" d="M74.11,265.74c0-18.52-15-32.3-38.8-35.16h83Z"/><path class="f" d="M118.27,295c-6.6-15.6-18.6-29.26-44.16-29.26l44.16-35.16Z"/><path class="g" d="M162.44,265.74c0-18.52,14.95-32.3,38.8-35.16h-83Z"/><path class="h" d="M118.27,295c6.61-15.6,18.61-29.26,44.17-29.26l-44.17-35.16Z"/><circle class="i" cx="113" cy="217.11" r="1.62"/><circle class="i" cx="123.55" cy="217.11" r="1.62"/><path class="a" d="M266.08,250.69a20.07,20.07,0,0,1,1.59-8.14,18.26,18.26,0,0,1,4.37-6.17,19.55,19.55,0,0,1,6.6-3.92,25.59,25.59,0,0,1,16.52,0,19.88,19.88,0,0,1,6.63,3.92,18,18,0,0,1,4.39,6.17,20.07,20.07,0,0,1,1.59,8.14,20.62,20.62,0,0,1-1.59,8.21,18.58,18.58,0,0,1-4.39,6.33,19.69,19.69,0,0,1-6.63,4,24.57,24.57,0,0,1-16.52,0,19.36,19.36,0,0,1-6.6-4,18.82,18.82,0,0,1-4.37-6.33A20.62,20.62,0,0,1,266.08,250.69Zm13.4,0a10,10,0,0,0,.56,3.39,8.17,8.17,0,0,0,1.54,2.65,6.81,6.81,0,0,0,2.35,1.72,7.37,7.37,0,0,0,3,.61,7,7,0,0,0,5.3-2.33,8,8,0,0,0,1.56-2.65,10,10,0,0,0,.56-3.39,9.5,9.5,0,0,0-.56-3.31,7.12,7.12,0,0,0-1.56-2.55,7.3,7.3,0,0,0-5.3-2.19,7.53,7.53,0,0,0-3,.58,6.93,6.93,0,0,0-2.35,1.61,7.22,7.22,0,0,0-1.54,2.55A9.5,9.5,0,0,0,279.48,250.69Z"/><path class="a" d="M312.19,250.9a20.27,20.27,0,0,1,1.59-8.16,18.79,18.79,0,0,1,4.34-6.25,19.3,19.3,0,0,1,6.49-4,22.62,22.62,0,0,1,8-1.4,24,24,0,0,1,8.21,1.4,19,19,0,0,1,6.46,3.79l-7.73,9.32a6.86,6.86,0,0,0-2.65-2.09,8.53,8.53,0,0,0-3.55-.72,7.89,7.89,0,0,0-3,.56A6.92,6.92,0,0,0,328,245a7.25,7.25,0,0,0-1.61,2.57,9.18,9.18,0,0,0-.59,3.36,8.6,8.6,0,0,0,.61,3.31,8.07,8.07,0,0,0,1.64,2.52,7.13,7.13,0,0,0,2.41,1.61,7.74,7.74,0,0,0,2.92.56,7.33,7.33,0,0,0,3.73-.9,8,8,0,0,0,2.47-2.12l7.73,9.27A18.76,18.76,0,0,1,341,269.2a23.61,23.61,0,0,1-16.4.08A18.92,18.92,0,0,1,313.78,259,20,20,0,0,1,312.19,250.9Z"/><path class="a" d="M368.74,270.71a21.85,21.85,0,0,1-7.65-1.22,15.08,15.08,0,0,1-5.43-3.34,13.26,13.26,0,0,1-3.24-5,18.09,18.09,0,0,1-1.05-6.22V232.15H364v21.4a6.24,6.24,0,0,0,1.3,4.21,5.24,5.24,0,0,0,7.36,0,6.24,6.24,0,0,0,1.3-4.21v-21.4h12.56v22.78a16.81,16.81,0,0,1-1.14,6.22,13.69,13.69,0,0,1-3.37,5,15.61,15.61,0,0,1-5.53,3.34A22.36,22.36,0,0,1,368.74,270.71Z"/><path class="a" d="M394.3,232.15H407v26.64h12.45v10.86H394.3Z"/><path class="a" d="M436.67,232.15h13.4l14.62,37.5H451l-2-5.51H437.09l-1.85,5.51H421.89Zm6.52,13.08-3.08,9.27h6.09Z"/><path class="a" d="M259.84,241.75a15.59,15.59,0,0,0-5-5.69,19.64,19.64,0,0,0-7.15-3,40.36,40.36,0,0,0-8.5-.87h-17.8a10.79,10.79,0,0,1,4.76,9.25,10.67,10.67,0,0,1-5.21,9.5,10.67,10.67,0,0,1,5.21,9.5,10.79,10.79,0,0,1-4.76,9.25h18.86a29,29,0,0,0,8.05-1.11,19.85,19.85,0,0,0,6.83-3.42,16.69,16.69,0,0,0,4.75-5.9,19.16,19.16,0,0,0,1.77-8.53A19.36,19.36,0,0,0,259.84,241.75Zm-13.3,15.14q-2.39,1.92-6.83,1.92h-2.33V242.87h2.8a9.5,9.5,0,0,1,6.36,2,7.06,7.06,0,0,1,2.38,5.68Q248.92,255,246.54,256.89Z"/></svg>