<svg xmlns="http://www.w3.org/2000/svg" version="1.1" xmlns:xlink="http://www.w3.org/1999/xlink" xmlns:svgjs="http://svgjs.com/svgjs" width="1000" height="1000"><style>
    #light-icon {
      display: inline;
    }
    #dark-icon {
      display: none;
    }

    @media (prefers-color-scheme: dark) {
      #light-icon {
        display: none;
      }
      #dark-icon {
        display: inline;
      }
    }
  </style><g id="light-icon"><svg xmlns="http://www.w3.org/2000/svg" version="1.1" xmlns:xlink="http://www.w3.org/1999/xlink" xmlns:svgjs="http://svgjs.com/svgjs" width="1000" height="1000"><g transform="matrix(2,0,0,2,0,0.01499176025390625)"><svg xmlns="http://www.w3.org/2000/svg" version="1.1" xmlns:xlink="http://www.w3.org/1999/xlink" xmlns:svgjs="http://svgjs.com/svgjs" width="500" height="500"><svg xmlns="http://www.w3.org/2000/svg" xmlns:xlink="http://www.w3.org/1999/xlink" viewBox="0 0 500 500"><defs><style>.a{fill:#322d3c;}.b{fill:url(#a);}.c{fill:url(#b);}.d{fill:url(#c);}.e{fill:url(#d);}.f{fill:url(#e);}.g{fill:url(#f);}.h{fill:url(#g);}.i{fill:#fff;}</style><linearGradient id="a" x1="250" y1="209.03" x2="250" y2="209.03" gradientUnits="userSpaceOnUse"><stop offset="0" stop-color="#322d3c"></stop><stop offset="1" stop-color="#7d7887"></stop></linearGradient><linearGradient id="b" x1="251.45" y1="192.69" x2="423.54" y2="192.69" xlink:href="#a"></linearGradient><linearGradient id="c" x1="75" y1="192.69" x2="248.78" y2="192.69" xlink:href="#a"></linearGradient><linearGradient id="d" x1="248.43" y1="208.77" x2="141" y2="239.05" xlink:href="#a"></linearGradient><linearGradient id="e" x1="211.78" y1="296.51" x2="252.88" y2="210.23" xlink:href="#a"></linearGradient><linearGradient id="f" x1="360.42" y1="240.03" x2="249.38" y2="211.42" xlink:href="#a"></linearGradient><linearGradient id="g" x1="250.47" y1="212.22" x2="288.45" y2="296.1" xlink:href="#a"></linearGradient></defs><title>Docula Symbol RGB</title><path class="a" d="M425,209h0c-17.25-18.55-74.92-37.73-135.46-31.48-4.65-6.65-12.44-15.33-20-22.47-3.89,4.66-11.48,9.73-19.57,9.73s-15.68-5.07-19.57-9.73c-7.53,7.14-15.32,15.82-20,22.47h0C149.92,171.3,92.25,190.48,75,209h0c50.3,6,81.84,35.1,81.84,74.18,53.91,0,79.22,28.8,93.16,61.71h0c13.93-32.91,39.25-61.71,93.16-61.71,0-39.08,31.54-68.14,81.84-74.18ZM238.87,184a3.42,3.42,0,1,1,3.42-3.42A3.42,3.42,0,0,1,238.87,184Zm22.26,0a3.42,3.42,0,1,1,3.42-3.42A3.42,3.42,0,0,1,261.13,184Z"></path><polygon class="b" points="250 209.03 250 209.03 250 209.03 250 209.03"></polygon><path class="c" d="M425,209c-17.25-18.55-74.92-37.73-135.46-31.48L250,209Z"></path><path class="d" d="M75,209H250l-39.54-31.48C149.92,171.3,92.25,190.48,75,209Z"></path><path class="a" d="M289.54,177.55h0c-4.65-6.65-12.44-15.33-20-22.47-3.89,4.66-11.48,9.73-19.57,9.73s-15.68-5.07-19.57-9.73c-7.53,7.14-15.32,15.82-20,22.47h0L250,209h0Z"></path><path class="e" d="M156.84,283.21c0-39.08-31.54-68.14-81.84-74.18H250Z"></path><path class="f" d="M250,344.92c-13.94-32.91-39.25-61.71-93.16-61.71L250,209Z"></path><path class="g" d="M343.16,283.21c0-39.08,31.54-68.14,81.84-74.18H250Z"></path><path class="h" d="M250,344.92c13.94-32.91,39.25-61.71,93.16-61.71L250,209Z"></path><circle class="i" cx="238.87" cy="180.62" r="3.42"></circle><circle class="i" cx="261.13" cy="180.62" r="3.42"></circle></svg></svg></g></svg></g><g id="dark-icon"><svg xmlns="http://www.w3.org/2000/svg" version="1.1" xmlns:xlink="http://www.w3.org/1999/xlink" xmlns:svgjs="http://svgjs.com/svgjs" width="1000" height="1000"><rect width="1000" height="1000" rx="500" ry="500" fill="#ffffff"></rect><g transform="matrix(2,0,0,2,0,0.03000640869140625)"><svg xmlns="http://www.w3.org/2000/svg" version="1.1" xmlns:xlink="http://www.w3.org/1999/xlink" xmlns:svgjs="http://svgjs.com/svgjs" width="500" height="500"><svg xmlns="http://www.w3.org/2000/svg" viewBox="0 0 500 500"><title>Docula Symbol BLACK</title><path d="M425,209h0c-17.25-18.55-74.92-37.73-135.46-31.48-4.65-6.65-12.44-15.33-20-22.47-3.89,4.66-11.48,9.73-19.57,9.73s-15.68-5.07-19.57-9.73c-7.53,7.14-15.32,15.82-20,22.47h0C149.92,171.3,92.25,190.48,75,209h0c50.3,6,81.84,35.1,81.84,74.18,53.91,0,79.22,28.8,93.16,61.71h0c13.93-32.91,39.25-61.71,93.16-61.71,0-39.08,31.54-68.14,81.84-74.18ZM238.87,184a3.42,3.42,0,1,1,3.42-3.42A3.42,3.42,0,0,1,238.87,184Zm22.26,0a3.42,3.42,0,1,1,3.42-3.42A3.42,3.42,0,0,1,261.13,184Z"></path></svg></svg></g></svg></g></svg>