<svg xmlns="http://www.w3.org/2000/svg" viewBox="0 0 500 500"><title>Docula Symbol Alt BLACK</title><path d="M425,209c-17.25-18.55-74.92-37.73-135.46-31.48-4.65-6.65-12.44-15.33-20-22.47-3.89,4.66-11.48,9.73-19.57,9.73s-15.68-5.07-19.57-9.73c-7.53,7.14-15.32,15.82-20,22.47h0C149.92,171.3,92.25,190.48,75,209h0c50.3,6,81.84,35.1,81.84,74.18,53.91,0,79.22,28.8,93.16,61.71,13.94-32.91,39.25-61.71,93.16-61.71,0-39.08,31.54-68.14,81.84-74.18ZM261.13,177.2a3.42,3.42,0,1,1-3.42,3.42A3.42,3.42,0,0,1,261.13,177.2Zm-22.26,0a3.42,3.42,0,1,1-3.42,3.42A3.42,3.42,0,0,1,238.87,177.2Zm46.31,79.44a30.52,30.52,0,0,1-8.68,10.81A36.79,36.79,0,0,1,264,273.71a53,53,0,0,1-14.74,2H214.73c5.18-3.21,8.72-9.58,8.72-16.93,0-7.72-3.92-14.36-9.55-17.39,5.63-3,9.55-9.67,9.55-17.4,0-7.34-3.54-13.72-8.72-16.93h32.59a73.5,73.5,0,0,1,15.56,1.6A36.15,36.15,0,0,1,276,214.22,28.43,28.43,0,0,1,285,224.64q3.39,6.5,3.4,16.39A34.89,34.89,0,0,1,285.18,256.64ZM260.7,230.4q-4.36-3.72-11.64-3.72h-5.14v29.19h4.27q8.15,0,12.51-3.53t4.36-11.55Q265.06,234.12,260.7,230.4Z"/></svg>