<svg xmlns="http://www.w3.org/2000/svg" viewBox="0 0 500 500"><defs><style>.a{fill:#fff;}</style></defs><title>Docula Symbol Alt WHITE</title><path class="a" d="M260.7,230.4q-4.36-3.72-11.64-3.72h-5.14v29.19h4.27q8.15,0,12.51-3.53t4.36-11.55Q265.06,234.12,260.7,230.4Zm123-43.21a235.92,235.92,0,0,0-69.92-10.36A231.41,231.41,0,0,0,290,178l-.43,0-.25-.35a162.9,162.9,0,0,0-19.5-22c-4.29,4.81-11.9,9.48-19.79,9.48s-15.49-4.67-19.8-9.48a163.46,163.46,0,0,0-19.49,22l-.25.35-.43,0a231.41,231.41,0,0,0-23.83-1.21c-50.07,0-95.25,15.93-111.2,31.69,49.41,6.42,81.35,35.56,81.74,74.65,44.86.21,75.39,20.22,93.26,61.13,17.87-40.91,48.39-60.92,93.26-61.13.39-39.09,32.33-68.23,81.74-74.65C417.08,200.69,402.17,193,383.72,187.19Zm-122.49-11a4.19,4.19,0,1,1-4.19,4.19A4.19,4.19,0,0,1,261.23,176.22Zm-22.46,0a4.19,4.19,0,1,1-4.18,4.19A4.2,4.2,0,0,1,238.77,176.22Zm46.41,80.42a30.52,30.52,0,0,1-8.68,10.81A36.79,36.79,0,0,1,264,273.71a53,53,0,0,1-14.74,2H214.73c5.18-3.21,8.72-9.58,8.72-16.93,0-7.72-3.92-14.36-9.55-17.39,5.63-3,9.55-9.67,9.55-17.4,0-7.34-3.54-13.72-8.72-16.93h32.59a73.5,73.5,0,0,1,15.56,1.6A36.15,36.15,0,0,1,276,214.22,28.43,28.43,0,0,1,285,224.64q3.39,6.5,3.4,16.39A34.89,34.89,0,0,1,285.18,256.64Z"/></svg>