<svg xmlns="http://www.w3.org/2000/svg" viewBox="0 0 500 500"><title>Docula Symbol BLACK</title><path d="M425,209h0c-17.25-18.55-74.92-37.73-135.46-31.48-4.65-6.65-12.44-15.33-20-22.47-3.89,4.66-11.48,9.73-19.57,9.73s-15.68-5.07-19.57-9.73c-7.53,7.14-15.32,15.82-20,22.47h0C149.92,171.3,92.25,190.48,75,209h0c50.3,6,81.84,35.1,81.84,74.18,53.91,0,79.22,28.8,93.16,61.71h0c13.93-32.91,39.25-61.71,93.16-61.71,0-39.08,31.54-68.14,81.84-74.18ZM238.87,184a3.42,3.42,0,1,1,3.42-3.42A3.42,3.42,0,0,1,238.87,184Zm22.26,0a3.42,3.42,0,1,1,3.42-3.42A3.42,3.42,0,0,1,261.13,184Z"/></svg>