<svg xmlns="http://www.w3.org/2000/svg" viewBox="0 0 500 500"><defs><style>.a{fill:#7d7887;}.b{fill:#fff;}.c{fill:#322d3c;}</style></defs><title>Docula Symbol Alt-3 RGB</title><path class="a" d="M425,209h0c-17.25-18.55-74.92-37.73-135.46-31.48-4.65-6.65-12.44-15.33-20-22.47-3.89,4.66-11.48,9.73-19.57,9.73s-15.68-5.07-19.57-9.73c-7.53,7.14-15.32,15.82-20,22.47h0C149.92,171.3,92.25,190.48,75,209h0c50.3,6,81.84,35.1,81.84,74.18,53.91,0,79.22,28.8,93.16,61.71h0c13.93-32.91,39.25-61.71,93.16-61.71,0-39.08,31.54-68.14,81.84-74.18Z"/><path class="b" d="M238.87,184a3.42,3.42,0,1,1,3.42-3.42A3.42,3.42,0,0,1,238.87,184Z"/><path class="b" d="M261.13,184a3.42,3.42,0,1,1,3.42-3.42A3.42,3.42,0,0,1,261.13,184Z"/><path class="c" d="M285,224.64A28.43,28.43,0,0,0,276,214.22a36.15,36.15,0,0,0-13.09-5.53,73.5,73.5,0,0,0-15.56-1.6H214.73c5.18,3.21,8.72,9.59,8.72,16.93,0,7.73-3.92,14.37-9.55,17.4,5.63,3,9.55,9.67,9.55,17.39,0,7.35-3.54,13.72-8.72,16.93h34.52a53,53,0,0,0,14.74-2,36.79,36.79,0,0,0,12.51-6.26,30.52,30.52,0,0,0,8.68-10.81A34.89,34.89,0,0,0,288.43,241Q288.43,231.15,285,224.64Zm-24.33,27.7q-4.36,3.53-12.51,3.53h-4.27V226.68h5.14q7.27,0,11.64,3.72t4.36,10.39Q265.06,248.82,260.7,252.34Z"/></svg>